<svg xmlns="http://www.w3.org/2000/svg" width="982.171" height="827.449" viewBox="0 0 982.171 827.449">
  <g id="Grupo_1951" data-name="Grupo 1951" transform="translate(5332.001 -11084)">
    <g id="Grupo_1188" data-name="Grupo 1188" transform="translate(-5509.428 10899.667)">
      <rect id="Rectángulo_1238" data-name="Rectángulo 1238" width="172.552" height="129.987" rx="5" transform="matrix(0.985, 0.174, -0.174, 0.985, 394.763, 329.385)" fill="none" opacity="0.5"/>
      <g id="Grupo_1187" data-name="Grupo 1187">
        <g id="Grupo_1186" data-name="Grupo 1186" opacity="0.5">
          <g id="Grupo_1176" data-name="Grupo 1176">
            <rect id="Rectángulo_1241" data-name="Rectángulo 1241" width="86.276" height="79.639" transform="matrix(0.985, 0.174, -0.174, 0.985, 266.736, 291.086)" fill="none"/>
          </g>
          <g id="Grupo_1177" data-name="Grupo 1177">
            <rect id="Rectángulo_1242" data-name="Rectángulo 1242" width="86.276" height="79.639" transform="matrix(0.985, 0.174, -0.174, 0.985, 252.907, 369.516)" fill="none"/>
          </g>
          <g id="Grupo_1178" data-name="Grupo 1178">
            <rect id="Rectángulo_1243" data-name="Rectángulo 1243" width="86.276" height="73.003" transform="matrix(0.985, 0.174, -0.174, 0.985, 239.078, 447.945)" fill="none"/>
          </g>
          <g id="Grupo_1179" data-name="Grupo 1179">
            <rect id="Rectángulo_1244" data-name="Rectángulo 1244" width="86.276" height="73.003" transform="matrix(0.985, 0.174, -0.174, 0.985, 226.401, 519.839)" fill="none"/>
          </g>
          <g id="Grupo_1180" data-name="Grupo 1180">
            <rect id="Rectángulo_1245" data-name="Rectángulo 1245" width="86.276" height="159.278" transform="matrix(0.985, 0.174, -0.174, 0.985, 213.724, 591.732)" fill="none"/>
          </g>
        </g>
        <g id="Trazado_5466" data-name="Trazado 5466" fill="#e4e5ed" stroke-miterlimit="10">
          <path d="M 1017.394714355469 1010.782104492188 C 1016.950927734375 1010.782104492188 1016.504333496094 1010.742980957031 1016.067199707031 1010.665771484375 L 225.1551971435547 871.1027221679688 C 221.0104522705078 870.3709716796875 218.2318267822266 866.4039916992188 218.9610748291016 862.259765625 L 236.0438995361328 765.1571655273438 L 184.7393188476562 756.1107177734375 C 182.7308197021484 755.7568969726562 180.9801940917969 754.6417236328125 179.8101959228516 752.9708862304688 C 178.6400756835938 751.2998657226562 178.1908264160156 749.2731323242188 178.5453186035156 747.2642211914062 L 259.1512145996094 290.1233825683594 C 259.4646911621094 288.3447570800781 260.4014587402344 286.7304992675781 261.788818359375 285.5777587890625 C 263.1594543457031 284.4389953613281 264.8910827636719 283.8117370605469 266.6647033691406 283.8117370605469 C 267.1074523925781 283.8117370605469 267.5548400878906 283.8508605957031 267.9940795898438 283.9281311035156 L 816.1134643554688 380.2480773925781 L 849.3292236328125 191.6454925537109 C 849.6825561523438 189.6368713378906 850.7977294921875 187.8857421875 852.4692993164062 186.7148742675781 C 853.7599487304688 185.8108673095703 855.2747192382812 185.3329925537109 856.8497314453125 185.3329925537109 C 857.2930908203125 185.3329925537109 857.7391967773438 185.3721160888672 858.1759643554688 185.4492492675781 L 1152.28564453125 237.3092498779297 C 1156.432250976562 238.0398712158203 1159.211303710938 242.0078735351562 1158.480834960938 246.1544952392578 L 1024.914794921875 1004.470520019531 C 1024.5615234375 1006.479125976562 1023.446472167969 1008.230224609375 1021.774597167969 1009.401123046875 C 1020.483703613281 1010.304626464844 1018.969177246094 1010.782104492188 1017.394714355469 1010.782104492188 Z M 817.2594604492188 966.81396484375 L 1016.582580566406 1001.986389160156 L 1149.801635742188 245.6401214599609 L 857.6613159179688 194.12841796875 L 815.2348022460938 434.9744873046875 L 815.0612182617188 435.9596252441406 L 814.076171875 435.7857360839844 L 811.1513061523438 435.2697448730469 L 810.1665649414062 435.0961303710938 L 810.34033203125 434.1113586425781 L 818.2265625 389.3887023925781 L 380.0551452636719 312.3898315429688 L 352.1064758300781 470.8948669433594 L 556.3768310546875 506.9126281738281 L 568.6242065429688 437.4563598632812 L 568.7978515625 436.4716186523438 L 569.7825927734375 436.6451110839844 L 572.6875610351562 437.1571350097656 L 573.6724243164062 437.3307495117188 L 573.4987182617188 438.3156127929688 L 556.2117309570312 536.3526000976562 L 556.0380859375 537.3373413085938 L 555.0533447265625 537.1638793945312 L 552.1484375 536.65185546875 L 551.16357421875 536.478271484375 L 551.3373413085938 535.4933471679688 L 555.5177001953125 511.787109375 L 348.8104553222656 475.3387451171875 C 348.1599426269531 475.2244873046875 347.5924377441406 474.8632507324219 347.2129516601562 474.3218688964844 C 346.8335876464844 473.7803649902344 346.6875610351562 473.1237487792969 346.8020629882812 472.4728698730469 L 375.1804504394531 311.53271484375 L 353.9091491699219 307.7948303222656 L 273.8974609375 761.5648803710938 L 284.5317077636719 763.4402465820312 C 285.1821899414062 763.5545043945312 285.7496948242188 763.915771484375 286.1292114257812 764.457275390625 C 286.5085754394531 764.9985961914062 286.6543273925781 765.6553955078125 286.5398254394531 766.3062744140625 L 274.2924499511719 835.7628784179688 L 491.6349487304688 874.0866088867188 L 496.9671936035156 843.8443603515625 C 497.1754455566406 842.6596069335938 498.19970703125 841.7994995117188 499.402587890625 841.7994995117188 C 499.5462036132812 841.7994995117188 499.6909484863281 841.8121337890625 499.8330688476562 841.8370971679688 L 532.5125732421875 847.5992431640625 C 533.1640625 847.7144775390625 533.731201171875 848.0761108398438 534.1102294921875 848.6174926757812 C 534.4894409179688 849.1593627929688 534.6349487304688 849.8162231445312 534.5195922851562 850.4673461914062 L 529.1873168945312 880.7078857421875 L 550.4568481445312 884.4586181640625 L 556.9413452148438 847.681396484375 C 557.1506958007812 846.4957275390625 558.1754760742188 845.635498046875 559.377685546875 845.635498046875 C 559.5213012695312 845.635498046875 559.6660766601562 845.6481323242188 559.8082275390625 845.673095703125 L 697.0595703125 869.874267578125 C 697.7110595703125 869.989501953125 698.2781982421875 870.3511352539062 698.6572265625 870.8925170898438 C 699.0364379882812 871.4343872070312 699.1819458007812 872.0912475585938 699.0665893554688 872.7423706054688 L 686.5463256835938 943.7490234375 L 779.7068481445312 960.1884765625 L 787.6192016601562 915.3113403320312 C 787.8289794921875 914.1260986328125 788.8535766601562 913.2664794921875 790.0556030273438 913.2664794921875 C 790.19921875 913.2664794921875 790.3439331054688 913.2791137695312 790.486083984375 913.3041381835938 L 823.1655883789062 919.0662231445312 C 824.5088500976562 919.3040161132812 825.408935546875 920.5899658203125 825.1728515625 921.93310546875 L 817.2594604492188 966.81396484375 Z M 784.580322265625 961.0479736328125 L 812.3848876953125 965.9544677734375 L 819.8685913085938 923.5111083984375 L 792.0640258789062 918.6083984375 L 784.580322265625 961.0479736328125 Z M 640.7973022460938 935.676025390625 L 681.671875 942.8894653320312 L 693.7626953125 874.319091796875 L 652.8870849609375 867.1113891601562 L 640.7973022460938 935.676025390625 Z M 595.0473022460938 927.60302734375 L 635.9228515625 934.8164672851562 L 648.0126953125 866.2520751953125 L 607.1361694335938 859.0443725585938 L 595.0473022460938 927.60302734375 Z M 549.2984619140625 919.531005859375 L 590.1728515625 926.7434692382812 L 602.2615966796875 858.1851196289062 L 561.3861694335938 850.9774169921875 L 549.2984619140625 919.531005859375 Z M 227.6399993896484 862.7709350585938 L 544.4238891601562 918.6704711914062 L 549.5965576171875 889.3331298828125 L 270.9954528808594 840.207763671875 C 269.6527099609375 839.9717407226562 268.751953125 838.6860961914062 268.9880676269531 837.3419799804688 L 281.2356872558594 767.8840942382812 L 245.4436187744141 761.5734252929688 L 227.6399993896484 862.7709350585938 Z M 496.5084533691406 874.9458618164062 L 524.31298828125 879.8486328125 L 529.2156982421875 852.0441284179688 L 501.4111938476562 847.141357421875 L 496.5084533691406 874.9458618164062 Z M 188.9323272705078 746.5828857421875 L 269.0229797363281 760.7056274414062 L 295.8225708007812 608.7210693359375 L 215.7310638427734 594.598388671875 L 188.9323272705078 746.5828857421875 Z M 216.5913238525391 589.724853515625 L 296.6819458007812 603.8466186523438 L 308.4986877441406 536.8270874023438 L 228.4080657958984 522.7053833007812 L 216.5913238525391 589.724853515625 Z M 229.2674713134766 517.8308715820312 L 309.3589477539062 531.95361328125 L 321.1756896972656 464.9341125488281 L 241.0850524902344 450.8114013671875 L 229.2674713134766 517.8308715820312 Z M 241.9444580078125 445.9378662109375 L 322.0349731445312 460.0596008300781 L 335.0045776367188 386.5050964355469 L 254.9140625 372.3823852539062 L 241.9444580078125 445.9378662109375 Z M 255.7733306884766 367.5079040527344 L 335.8648376464844 381.630615234375 L 348.8346862792969 308.0751037597656 L 268.7431945800781 293.953369140625 L 255.7733306884766 367.5079040527344 Z M 734.2998657226562 814.0387573242188 C 734.2996826171875 814.0387573242188 734.2997436523438 814.0387573242188 734.299560546875 814.0387573242188 C 734.1552124023438 814.0387573242188 734.0095825195312 814.0260009765625 733.86669921875 814.0006103515625 L 544.6932983398438 780.644775390625 L 543.7085571289062 780.4711303710938 L 543.882080078125 779.4863891601562 L 544.3942260742188 776.5813598632812 L 544.5678100585938 775.5964965820312 L 545.5526733398438 775.770263671875 L 732.2899780273438 808.6965942382812 L 762.5455932617188 637.1051025390625 L 575.808349609375 604.1787719726562 L 574.8231811523438 604.005126953125 L 574.9971923828125 603.0201416015625 L 575.5101928710938 600.1151123046875 L 575.68408203125 599.130615234375 L 576.6685791015625 599.3042602539062 L 765.8425903320312 632.6602172851562 C 766.4940795898438 632.7755126953125 767.0612182617188 633.1371459960938 767.440185546875 633.678466796875 C 767.819580078125 634.2203979492188 767.9649658203125 634.8773803710938 767.8495483398438 635.5285034179688 L 736.7346801757812 811.9935913085938 C 736.5248413085938 813.1788330078125 735.5009155273438 814.0387573242188 734.2998657226562 814.0387573242188 Z M 512.402099609375 786.9317626953125 L 511.4169616699219 786.7577514648438 L 508.5130615234375 786.2447509765625 L 507.5286865234375 786.0708618164062 L 507.7023315429688 785.0863647460938 L 543.4271850585938 582.4773559570312 L 543.600830078125 581.4922485351562 L 544.5858154296875 581.666259765625 L 547.490966796875 582.1792602539062 L 548.4754638671875 582.3531494140625 L 548.3018188476562 583.337646484375 L 512.57568359375 785.9465942382812 L 512.402099609375 786.9317626953125 Z M 314.419189453125 684.63134765625 L 313.4344482421875 684.4578857421875 L 310.5294494628906 683.9458618164062 L 309.5445861816406 683.772216796875 L 309.7183227539062 682.787353515625 L 314.3281860351562 656.6443481445312 L 314.5018310546875 655.6596069335938 L 315.486572265625 655.8331298828125 L 318.3915710449219 656.3450927734375 L 319.37646484375 656.5187377929688 L 319.2026977539062 657.5036010742188 L 314.5928344726562 683.6466064453125 L 314.419189453125 684.63134765625 Z M 330.5531921386719 593.13037109375 L 329.5684509277344 592.9568481445312 L 326.6634521484375 592.4448852539062 L 325.6785888671875 592.271240234375 L 325.8523254394531 591.286376953125 L 330.6543273925781 564.0543823242188 L 330.8279418945312 563.0696411132812 L 331.8127136230469 563.2431030273438 L 334.7177124023438 563.755126953125 L 335.7025756835938 563.9287719726562 L 335.5288391113281 564.9136352539062 L 330.7268371582031 592.1456298828125 L 330.5531921386719 593.13037109375 Z M 793.1450805664062 560.1353759765625 L 792.1603393554688 559.9618530273438 L 789.2554321289062 559.4498901367188 L 788.2705688476562 559.2762451171875 L 788.4443359375 558.2913818359375 L 798.8163452148438 499.4693603515625 L 798.9899291992188 498.484619140625 L 799.9747314453125 498.6581115722656 L 802.8795776367188 499.1701049804688 L 803.8644409179688 499.34375 L 803.690673828125 500.32861328125 L 793.3187255859375 559.150634765625 L 793.1450805664062 560.1353759765625 Z" stroke="none"/>
          <path d="M 1017.394653320312 1009.782104492188 C 1018.746826171875 1009.782104492188 1020.077209472656 1009.368530273438 1021.200927734375 1008.581970214844 C 1022.64306640625 1007.572021484375 1023.625061035156 1006.031005859375 1023.929931640625 1004.296997070312 L 1157.495971679688 245.9809875488281 C 1158.131958007812 242.3710021972656 1155.720947265625 238.9299926757812 1152.112060546875 238.2939910888672 L 858.0020751953125 186.4339904785156 C 857.6190185546875 186.3663635253906 857.2335205078125 186.3330230712891 856.8497314453125 186.3330230712891 C 855.4970703125 186.3330230712891 854.166259765625 186.7472076416016 853.0430908203125 187.5339965820312 C 851.60107421875 188.5439910888672 850.6190795898438 190.0849914550781 850.3140869140625 191.8190002441406 L 816.9249267578125 381.406005859375 L 267.8210754394531 284.9129943847656 C 267.4327392578125 284.8447875976562 267.0458374023438 284.811767578125 266.6646728515625 284.811767578125 C 263.5036926269531 284.811767578125 260.70361328125 287.0772399902344 260.1359558105469 290.2969970703125 L 179.5300750732422 747.43798828125 C 178.8930816650391 751.0479736328125 181.3040771484375 754.489990234375 184.9129486083984 755.1259765625 L 237.2019500732422 764.3460083007812 L 219.9459533691406 862.4329833984375 C 219.3110809326172 866.041015625 221.7210693359375 869.4810180664062 225.3289489746094 870.1179809570312 L 1016.241088867188 1009.680969238281 C 1016.62451171875 1009.748718261719 1017.010498046875 1009.782104492188 1017.394653320312 1009.782104492188 M 790.0556030273438 914.2664794921875 C 789.3532104492188 914.2664794921875 788.7306518554688 914.7694702148438 788.6039428710938 915.4849853515625 L 780.5179443359375 961.3469848632812 L 685.387939453125 944.5599975585938 L 698.0819702148438 872.5679931640625 C 698.2239379882812 871.7659912109375 697.6879272460938 871.0009765625 696.8859252929688 870.8590087890625 L 559.6350708007812 846.6580200195312 C 559.5486450195312 846.642822265625 559.4625854492188 846.6354370117188 559.377685546875 846.6354370117188 C 558.6752319335938 846.6354370117188 558.0526733398438 847.1385498046875 557.9260864257812 847.85498046875 L 551.2679443359375 885.6170043945312 L 528.0289306640625 881.5189819335938 L 533.5349731445312 850.29296875 C 533.6769409179688 849.490966796875 533.1409301757812 848.7260131835938 532.3389282226562 848.583984375 L 499.6599426269531 842.822021484375 C 499.5735168457031 842.8068237304688 499.4874572753906 842.7994384765625 499.402587890625 842.7994384765625 C 498.7002563476562 842.7994384765625 498.0777587890625 843.3024291992188 497.9519653320312 844.0180053710938 L 492.4460754394531 875.2449951171875 L 273.1340637207031 836.573974609375 L 285.5549621582031 766.1329956054688 C 285.6960754394531 765.3309936523438 285.1600646972656 764.5659790039062 284.3580627441406 764.4249877929688 L 272.7390747070312 762.3759765625 L 353.0979614257812 306.6369934082031 L 376.3389587402344 310.7210083007812 L 347.7869567871094 472.64599609375 C 347.6459655761719 473.447998046875 348.1820678710938 474.2129821777344 348.9840698242188 474.35400390625 L 556.6760864257812 510.9759826660156 L 552.3220825195312 535.6669921875 L 555.2269287109375 536.1790161132812 L 572.5139770507812 438.1419982910156 L 569.6089477539062 437.6300048828125 L 557.1879272460938 508.0709838867188 L 350.9480895996094 471.7059936523438 L 379.2439575195312 311.2319946289062 L 819.3850708007812 388.5769958496094 L 811.3250732421875 434.2850036621094 L 814.2499389648438 434.8009948730469 L 856.8499755859375 192.9700012207031 L 1150.9599609375 244.8289947509766 L 1017.393920898438 1003.14501953125 L 816.10107421875 967.625 L 824.1879272460938 921.760009765625 C 824.3289794921875 920.9580078125 823.7940673828125 920.1929931640625 822.991943359375 920.051025390625 L 790.3129272460938 914.2890014648438 C 790.2265014648438 914.2738037109375 790.1404418945312 914.2664794921875 790.0556030273438 914.2664794921875 M 791.2529296875 917.4500122070312 L 821.0269775390625 922.7000122070312 L 813.1959228515625 967.1129760742188 L 783.4219360351562 961.8590087890625 L 791.2529296875 917.4500122070312 M 652.075927734375 865.9530029296875 L 694.9210815429688 873.5079956054688 L 682.4829711914062 944.0479736328125 L 639.6389770507812 936.4869995117188 L 652.075927734375 865.9530029296875 M 606.3250732421875 857.885986328125 L 649.1710815429688 865.4409790039062 L 636.7339477539062 935.9749755859375 L 593.8889770507812 928.4140014648438 L 606.3250732421875 857.885986328125 M 560.5750732421875 849.8189697265625 L 603.419921875 857.3740234375 L 590.9839477539062 927.9019775390625 L 548.1400756835938 920.3419799804688 L 560.5750732421875 849.8189697265625 M 244.632080078125 760.4149780273438 L 282.3940734863281 767.072998046875 L 269.9729614257812 837.5150146484375 C 269.8320617675781 838.3170166015625 270.3670654296875 839.0819702148438 271.1690673828125 839.2230224609375 L 550.7549438476562 888.52197265625 L 545.2349243164062 919.8289794921875 L 226.4819488525391 863.5819702148438 L 244.632080078125 760.4149780273438 M 500.6000671386719 845.9829711914062 L 530.3740844726562 851.2329711914062 L 525.1240844726562 881.0070190429688 L 495.3500671386719 875.7570190429688 L 500.6000671386719 845.9829711914062 M 214.9199523925781 593.4400024414062 L 296.98095703125 607.9099731445312 L 269.8340759277344 761.864013671875 L 187.7739562988281 747.3939819335938 L 214.9199523925781 593.4400024414062 M 227.5969543457031 521.5469970703125 L 309.6570739746094 536.0159912109375 L 297.4930725097656 605.0050048828125 L 215.4329528808594 590.5360107421875 L 227.5969543457031 521.5469970703125 M 240.2739562988281 449.6529846191406 L 322.3340759277344 464.1229858398438 L 310.1700744628906 533.1119995117188 L 228.1090698242188 518.6419677734375 L 240.2739562988281 449.6529846191406 M 254.1029510498047 371.2239990234375 L 336.1629638671875 385.6940002441406 L 322.8460693359375 461.2179870605469 L 240.7860717773438 446.7489929199219 L 254.1029510498047 371.2239990234375 M 267.9320678710938 292.7949829101562 L 349.9930725097656 307.2640075683594 L 336.6759643554688 382.7890014648438 L 254.6149444580078 368.3190002441406 L 267.9320678710938 292.7949829101562 M 734.299560546875 813.038818359375 C 735.0014038085938 813.038818359375 735.6233520507812 812.53515625 735.7499389648438 811.8200073242188 L 766.8649291992188 635.35400390625 C 767.007080078125 634.552001953125 766.470947265625 633.7869873046875 765.6689453125 633.64501953125 L 576.4949340820312 600.2890014648438 L 575.98193359375 603.1939697265625 L 763.7039794921875 636.2940063476562 L 733.10107421875 809.85498046875 L 545.3790893554688 776.7550048828125 L 544.866943359375 779.6599731445312 L 734.0410766601562 813.0159912109375 C 734.1279296875 813.0313720703125 734.21435546875 813.038818359375 734.299560546875 813.038818359375 M 511.5909423828125 785.7730102539062 L 547.3170776367188 583.1640014648438 L 544.4119262695312 582.6510009765625 L 508.6870727539062 785.260009765625 L 511.5909423828125 785.7730102539062 M 313.6080627441406 683.4730224609375 L 318.2179565429688 657.3300170898438 L 315.3129577636719 656.8179931640625 L 310.7030639648438 682.9609985351562 L 313.6080627441406 683.4730224609375 M 329.7420654296875 591.9719848632812 L 334.5440673828125 564.739990234375 L 331.6390686035156 564.2279663085938 L 326.8370666503906 591.4600219726562 L 329.7420654296875 591.9719848632812 M 792.3339233398438 558.9769897460938 L 802.7059326171875 500.1549987792969 L 799.8010864257812 499.6430053710938 L 789.4290771484375 558.4649658203125 L 792.3339233398438 558.9769897460938 M 1017.394714355469 1011.782104492188 C 1016.892578125 1011.782104492188 1016.387329101562 1011.737854003906 1015.89306640625 1011.650512695312 L 224.9814453125 872.087646484375 C 220.2939453125 871.260009765625 217.1514587402344 866.7734985351562 217.9761962890625 862.0863647460938 L 234.8858184814453 765.9684448242188 L 184.5657043457031 757.0956420898438 C 182.2940826416016 756.6952514648438 180.3143310546875 755.4341430664062 178.9910736083984 753.5444946289062 C 177.6675720214844 751.6546020507812 177.1595764160156 749.3624877929688 177.5604553222656 747.0905151367188 L 258.1663208007812 289.9497375488281 C 258.5209655761719 287.938232421875 259.5804443359375 286.1123657226562 261.1496887207031 284.8086242675781 C 262.6995849609375 283.5208740234375 264.658203125 282.8117370605469 266.6647033691406 282.8117370605469 C 267.1654663085938 282.8117370605469 267.6709594726562 282.8559875488281 268.1672058105469 282.943115234375 L 815.3021240234375 379.0901184082031 L 848.3444213867188 191.4721221923828 C 848.7439575195312 189.2005004882812 850.0051879882812 187.2200012207031 851.8956909179688 185.8958740234375 C 853.35546875 184.8733673095703 855.0684814453125 184.3329925537109 856.8497314453125 184.3329925537109 C 857.35107421875 184.3329925537109 857.8558349609375 184.3772430419922 858.349853515625 184.4644927978516 L 1152.459350585938 236.3243713378906 C 1157.148681640625 237.1507415771484 1160.291870117188 241.6383666992188 1159.465576171875 246.3279876708984 L 1025.899536132812 1004.643859863281 C 1025.500244140625 1006.915466308594 1024.238891601562 1008.89599609375 1022.348327636719 1010.22021484375 C 1020.888061523438 1011.242126464844 1019.175354003906 1011.782104492188 1017.394714355469 1011.782104492188 Z M 818.4179077148438 966.0028686523438 L 1015.771362304688 1000.827758789062 L 1148.643432617188 246.4514007568359 L 858.4725341796875 195.2869567871094 L 816.2196044921875 435.1480102539062 L 815.87255859375 437.1181335449219 L 813.9024658203125 436.7706298828125 L 810.9776000976562 436.2546081542969 L 809.0081787109375 435.9071350097656 L 809.35546875 433.9376220703125 L 817.0679321289062 390.2005004882812 L 380.866455078125 313.5478210449219 L 353.2649841308594 470.0836791992188 L 555.5656127929688 505.7540893554688 L 567.6393432617188 437.2827453613281 L 567.986572265625 435.313232421875 L 569.9560546875 435.6603698730469 L 572.861083984375 436.17236328125 L 574.8309326171875 436.5195007324219 L 574.4835815429688 438.4892578125 L 557.1965942382812 536.5262451171875 L 556.8493041992188 538.4957275390625 L 554.8798217773438 538.1486206054688 L 551.9749755859375 537.6365966796875 L 550.0050659179688 537.2894897460938 L 550.3524780273438 535.3196411132812 L 554.359130859375 512.5983276367188 L 348.6368408203125 476.3236083984375 C 347.7236938476562 476.1631164550781 346.9268188476562 475.6558837890625 346.3940734863281 474.895751953125 C 345.861328125 474.1356201171875 345.6564636230469 473.2137451171875 345.8171997070312 472.2997436523438 L 374.0218200683594 312.3445129394531 L 354.720458984375 308.9528198242188 L 275.0559997558594 760.7537231445312 L 284.7054443359375 762.4553833007812 C 285.6185913085938 762.6158447265625 286.4153137207031 763.1231079101562 286.9480895996094 763.8833618164062 C 287.480712890625 764.6436157226562 287.6855773925781 765.5656127929688 287.5246887207031 766.4796142578125 L 275.4509887695312 834.95166015625 L 490.82373046875 872.9281005859375 L 495.9823303222656 843.6707153320312 C 496.2746887207031 842.0075073242188 497.7131958007812 840.7994995117188 499.402587890625 840.7994995117188 C 499.6047058105469 840.7994995117188 499.8081970214844 840.8172607421875 500.0072021484375 840.8523559570312 L 532.6862182617188 846.6143798828125 C 534.5748291015625 846.94873046875 535.8383178710938 848.7552490234375 535.5043334960938 850.6417236328125 L 530.3458862304688 879.8966674804688 L 549.6456298828125 883.300048828125 L 555.9564208984375 847.5077514648438 C 556.2505493164062 845.8431396484375 557.689453125 844.635498046875 559.377685546875 844.635498046875 C 559.579833984375 844.635498046875 559.7833251953125 844.6532592773438 559.9822998046875 844.6883544921875 L 697.2332153320312 868.8893432617188 C 698.148193359375 869.0513916015625 698.9443359375 869.5590209960938 699.476318359375 870.3189697265625 C 700.0089721679688 871.0798950195312 700.2131958007812 872.0023803710938 700.0513305664062 872.916748046875 L 687.704833984375 942.9378662109375 L 778.8956298828125 959.02978515625 L 786.6343383789062 915.1377563476562 C 786.92919921875 913.473388671875 788.3679809570312 912.2664794921875 790.0556030273438 912.2664794921875 C 790.2576904296875 912.2664794921875 790.461181640625 912.2842407226562 790.6602172851562 912.3193969726562 L 823.3391723632812 918.0813598632812 C 825.2254638671875 918.4152221679688 826.4891967773438 920.2207641601562 826.15771484375 922.1062622070312 L 818.4179077148438 966.0028686523438 Z M 785.7388916015625 960.2368774414062 L 811.5736694335938 964.7957763671875 L 818.7100219726562 924.3223266601562 L 792.875244140625 919.7669067382812 L 785.7388916015625 960.2368774414062 Z M 641.955810546875 934.8648681640625 L 680.8607177734375 941.730712890625 L 692.6041870117188 875.1303100585938 L 653.6982421875 868.2698974609375 L 641.955810546875 934.8648681640625 Z M 596.205810546875 926.7918701171875 L 635.1116943359375 933.65771484375 L 646.8541870117188 867.0632934570312 L 607.9473876953125 860.2029418945312 L 596.205810546875 926.7918701171875 Z M 550.4569702148438 918.7198486328125 L 589.3616943359375 925.5847778320312 L 601.10302734375 858.9962768554688 L 562.1973876953125 852.1359252929688 L 550.4569702148438 918.7198486328125 Z M 228.7980651855469 861.9597778320312 L 543.6126708984375 917.5117797851562 L 548.4380493164062 890.144287109375 L 270.8218383789062 841.192626953125 C 268.9365844726562 840.8611450195312 267.6715698242188 839.0560913085938 268.0030822753906 837.1690063476562 L 280.0771484375 768.6953125 L 246.2551574707031 762.7319946289062 L 228.7980651855469 861.9597778320312 Z M 497.6669921875 874.1347045898438 L 523.5017700195312 878.6900634765625 L 528.0571899414062 852.8552856445312 L 502.2223815917969 848.2999267578125 L 497.6669921875 874.1347045898438 Z M 190.0908660888672 745.7716674804688 L 268.2117614746094 759.5470581054688 L 294.6640319824219 609.5322875976562 L 216.5422668457031 595.7568969726562 L 190.0908660888672 745.7716674804688 Z M 217.7498474121094 588.9136352539062 L 295.8707275390625 602.6881103515625 L 307.3401794433594 537.6383056640625 L 229.2192840576172 523.8638916015625 L 217.7498474121094 588.9136352539062 Z M 230.4259948730469 517.0197143554688 L 308.5477294921875 530.7950439453125 L 320.0171813964844 465.7453002929688 L 241.8962554931641 451.9699096679688 L 230.4259948730469 517.0197143554688 Z M 243.1029815673828 445.1266784667969 L 321.2237548828125 458.9010925292969 L 333.8460388183594 387.3163146972656 L 255.7252807617188 373.5409240722656 L 243.1029815673828 445.1266784667969 Z M 256.9318542480469 366.6966857910156 L 335.0536193847656 380.4720764160156 L 347.6761474609375 308.8863220214844 L 269.5543823242188 295.1119079589844 L 256.9318542480469 366.6966857910156 Z M 734.299560546875 815.0387573242188 C 734.0968017578125 815.0387573242188 733.892578125 815.020751953125 733.6925659179688 814.9853515625 L 544.5197143554688 781.629638671875 L 542.550048828125 781.2823486328125 L 542.8973388671875 779.312744140625 L 543.409423828125 776.40771484375 L 543.7567138671875 774.4381103515625 L 545.726318359375 774.785400390625 L 731.478759765625 807.5380859375 L 761.3870239257812 637.9163208007812 L 575.6347045898438 605.1636352539062 L 573.66455078125 604.8162231445312 L 574.012451171875 602.8462524414062 L 574.5254516601562 599.9412231445312 L 574.873046875 597.9721069335938 L 576.8422241210938 598.3193969726562 L 766.0161743164062 631.6753540039062 C 766.9312133789062 631.8373413085938 767.7273559570312 632.344970703125 768.2593383789062 633.1048583984375 C 768.7921752929688 633.8658447265625 768.996337890625 634.7886352539062 768.8343505859375 635.7030029296875 L 737.7196044921875 812.167236328125 C 737.4248046875 813.8317260742188 735.9866943359375 815.0387573242188 734.299560546875 815.0387573242188 Z M 513.2131958007812 788.0905151367188 L 511.2430725097656 787.7424926757812 L 508.3392028808594 787.2294921875 L 506.3703308105469 786.881591796875 L 506.7174377441406 784.9127197265625 L 542.4423217773438 582.3037719726562 L 542.7896728515625 580.3336181640625 L 544.7597045898438 580.6815185546875 L 547.6648559570312 581.1945190429688 L 549.6339721679688 581.5421142578125 L 549.2866821289062 583.51123046875 L 513.560546875 786.1202392578125 L 513.2131958007812 788.0905151367188 Z M 315.2304382324219 685.7897338867188 L 313.2609558105469 685.442626953125 L 310.35595703125 684.9306030273438 L 308.3860778808594 684.58349609375 L 308.7334594726562 682.61376953125 L 313.3433227539062 656.4707641601562 L 313.6905822753906 654.501220703125 L 315.6600646972656 654.848388671875 L 318.5650634765625 655.3603515625 L 320.5349426269531 655.70751953125 L 320.1875610351562 657.67724609375 L 315.5776977539062 683.8202514648438 L 315.2304382324219 685.7897338867188 Z M 331.3644409179688 594.2887573242188 L 329.3949584960938 593.941650390625 L 326.4899597167969 593.4296264648438 L 324.5200805664062 593.08251953125 L 324.8674621582031 591.1126098632812 L 329.6694641113281 563.880615234375 L 330.0166931152344 561.9112548828125 L 331.9862060546875 562.2583618164062 L 334.8912048339844 562.7703857421875 L 336.861083984375 563.1174926757812 L 336.5137023925781 565.0873413085938 L 331.7117004394531 592.3193969726562 L 331.3644409179688 594.2887573242188 Z M 793.956298828125 561.2937622070312 L 791.98681640625 560.9465942382812 L 789.0819702148438 560.4346313476562 L 787.112060546875 560.0875244140625 L 787.45947265625 558.1177368164062 L 797.8314208984375 499.2957458496094 L 798.1787109375 497.3262329101562 L 800.148193359375 497.6733703613281 L 803.0531005859375 498.1853637695312 L 805.02294921875 498.5325012207031 L 804.6755981445312 500.5022583007812 L 794.3035888671875 559.32421875 L 793.956298828125 561.2937622070312 Z" stroke="none" fill="#e4e5ed"/>
        </g>
      </g>
    </g>
  </g>
</svg>
