<svg id="Logo_MWC" xmlns="http://www.w3.org/2000/svg" width="207.091" height="50.039" viewBox="0 0 207.091 50.039">
  <path id="Trazado_5293" data-name="Trazado 5293" d="M38.737,68.076H15.225c-1.052,0-1.052,0-1.052-1.089V19.159c0-1.076,0-1.076,1.052-1.076H26.264c.823,0,.85.046.565.823a30.328,30.328,0,0,0-1.856,12.529c.833,11.648,6.212,20.5,16.145,26.4a29.733,29.733,0,0,0,14.015,4.079,32.022,32.022,0,0,0,7.493-.56c.536-.1.733.007.723.6-.039,1.744-.046,3.49.01,5.226.015.711-.222.916-.9.916-7.9-.029-15.807-.019-23.719-.019" transform="translate(-14.173 -18.056)" fill="#fff"/>
  <path id="Trazado_5294" data-name="Trazado 5294" d="M29.519,18.1c2.518,0,5.026,0,7.542.007.229,0,.565-.139.679.144.107.261-.209.436-.36.614a16.436,16.436,0,0,0-4.062,11.183A16.61,16.61,0,0,0,47.4,46.425a16.111,16.111,0,0,0,8.419-.957c.757-.309.777-.292.777.572,0,4.525-.01,9.057.017,13.589.01.672-.2.938-.828,1.059a29.9,29.9,0,0,1-18.118-1.963A30.554,30.554,0,0,1,20.5,39.792a31.282,31.282,0,0,1,.363-20.965.938.938,0,0,1,1.052-.738c2.533.027,5.068.01,7.6.01" transform="translate(-7.436 -18.072)" fill="#fff"/>
  <path id="Trazado_5295" data-name="Trazado 5295" d="M38.858,18.095c2.594,0,5.2.017,7.8-.01.665-.01.894.214.85.879-.041.787-.01,1.578-.01,2.367,0,.185.071.433-.085.526-.224.144-.37-.114-.531-.226a9.583,9.583,0,0,0-10.554-.772,9.666,9.666,0,0,0-5.377,9.183,10.012,10.012,0,0,0,15.673,8.2c.248-.161.487-.536.74-.407.3.158.127.589.134.906.01,1.524-.017,3.059.01,4.6a.926.926,0,0,1-.626,1,15.507,15.507,0,0,1-21.41-11.631A15.636,15.636,0,0,1,29.645,18.8a2.083,2.083,0,0,1,1.668-.728c2.518.044,5.024.019,7.544.019" transform="translate(1.662 -18.068)" fill="#fff"/>
  <path id="Trazado_5296" data-name="Trazado 5296" d="M46.244,30.141c-.8,2.808-1.568,5.5-2.343,8.2a1.429,1.429,0,0,1-2.014.994c-.346-.132-.346-.472-.412-.743q-1.1-4.252-2.194-8.5c-.329-1.3-.64-2.6-1.006-3.9-.149-.548.029-.723.55-.714,2.038.029,1.556-.248,2.029,1.6.636,2.52,1.22,5.046,1.948,7.588.3-1.008.577-2.016.862-3.022.494-1.792,1.02-3.572,1.466-5.372.168-.662.507-.808,1.113-.808.631,0,.986.161,1.162.835.684,2.606,1.415,5.194,2.131,7.781a1.3,1.3,0,0,0,.3.572q.471-1.94.957-3.887c.37-1.524.748-3.051,1.086-4.6.112-.5.331-.7.838-.694,1.994.039,1.751-.192,1.288,1.615-.962,3.845-1.987,7.678-2.959,11.521-.132.533-.331.833-.911.76-.565-.051-1.2.219-1.447-.711-.709-2.667-1.512-5.306-2.272-7.953-.041-.158-.1-.3-.173-.563" transform="translate(20.347 -7.464)" fill="#fff"/>
  <path id="Trazado_5297" data-name="Trazado 5297" d="M36.308,22.347a5.324,5.324,0,1,0,5.258,5.245,5.219,5.219,0,0,0-5.258-5.245m6.563,5.343c0,1.3-.007,2.6.01,3.9a1.643,1.643,0,0,1-.331,1.028,7.848,7.848,0,0,1-8.3,2.762,8.01,8.01,0,0,1-5.75-6.665,8.142,8.142,0,0,1,4.529-8.377A7.841,7.841,0,0,1,42.34,22.42a2.018,2.018,0,0,1,.548,1.434c-.032,1.274-.017,2.552-.017,3.835" transform="translate(6.291 -15.864)" fill="#fff"/>
  <path id="Trazado_5298" data-name="Trazado 5298" d="M48.6,23.424c-.818,1.775-1.663,3.548-2.474,5.328-.226.472-.407.877-1.067.86a1.293,1.293,0,0,1-1.391-.816c-.755-1.739-1.6-3.431-2.533-5.124-.01.219-.029.438-.029.658-.007,2.274-.024,4.549.012,6.826.007.684-.18.952-.882.938-1.627-.034-1.4.046-1.4-1.439q-.011-5.746,0-11.5c0-.94.01-.869.882-.957a1.61,1.61,0,0,1,1.9,1.186c.984,2.343,2.111,4.612,3.207,6.965.3-.168.348-.458.458-.687,1-2.189,2.014-4.376,2.966-6.585.285-.643.619-1,1.33-.869a.9.9,0,0,0,.134.007c1.132,0,1.132,0,1.132,1.113V30.97c0,.158-.01.324,0,.482.034.455-.175.606-.6.633-1.551.1-1.541.114-1.541-1.485V23.455Z" transform="translate(21.21 -17.917)" fill="#fff"/>
  <path id="Trazado_5299" data-name="Trazado 5299" d="M54.266,23.924c.431,0,.867.017,1.3,0A1.786,1.786,0,0,0,57.409,22.1a1.825,1.825,0,0,0-1.839-1.841c-.455-.029-.916-.012-1.364-.012-1.778,0-1.778,0-1.778,1.836s0,1.851,1.836,1.841m.117,5.991a14.649,14.649,0,0,0,1.568-.01,1.722,1.722,0,0,0,1.627-1.8,1.8,1.8,0,0,0-1.5-2.009,20.657,20.657,0,0,0-3.005-.132c-.526-.029-.675.209-.648.7.024.446.007.886.007,1.325,0,1.958,0,1.958,1.953,1.929M50.152,25.1c0-2.046.015-4.084-.012-6.134-.01-.553.146-.787.733-.779,1.717.037,3.426-.017,5.138.024a3.7,3.7,0,0,1,3.4,5.092,3.174,3.174,0,0,1-1.037,1.359c-.192.178-.28.285,0,.465a3.8,3.8,0,0,1,1.218,4.542c-.636,1.753-2.1,2.311-3.755,2.389s-3.339,0-5.007.017c-.56.007-.689-.256-.689-.767.019-2.067.012-4.135.012-6.207" transform="translate(37.447 -17.907)" fill="#fff"/>
  <path id="Trazado_5300" data-name="Trazado 5300" d="M42.946,38.519c.455,0,.921.027,1.369-.007a1.815,1.815,0,0,0,1.775-1.9,1.768,1.768,0,0,0-1.829-1.763c-.46-.019-.918-.01-1.364-.01-1.79,0-1.79,0-1.79,1.843s0,1.841,1.839,1.841m.117,6c.448,0,.908.019,1.356,0a1.776,1.776,0,0,0,1.831-1.612A1.813,1.813,0,0,0,44.8,40.674a18.135,18.135,0,0,0-3.331-.1c-.307,0-.36.236-.36.5V42.52c0,2.009,0,2.009,1.955,2M38.84,39.739c0-2.016.017-4.045-.015-6.061-.017-.638.144-.906.835-.886,1.712.044,3.426-.029,5.131.027a3.351,3.351,0,0,1,3.178,2.053,3.668,3.668,0,0,1-.39,3.877c-.212.287-.733.419-.679.782.049.263.494.436.723.682a3.813,3.813,0,0,1,.621,4.042,3.412,3.412,0,0,1-3.083,2.3c-1.863.231-3.733.078-5.606.129-.594.007-.731-.256-.723-.808.017-2.043.007-4.089.007-6.132" transform="translate(21.207 3.052)" fill="#fff"/>
  <path id="Trazado_5301" data-name="Trazado 5301" d="M74.98,37.6v7.729c0,1.376,0,1.342-1.349,1.364-.67.019-.916-.173-.916-.891q.051-6.064,0-12.122c0-.7.224-.843.86-.886A1.82,1.82,0,0,1,75.452,33.8c1.5,2.438,3.083,4.829,4.651,7.24.195.3.395.6.711,1.084V41.2c0-2.528.022-5.063,0-7.6-.012-.606.178-.816.777-.8,1.612.054,1.485-.2,1.485,1.493V45.729c0,.9-.066.894-.93.972a1.669,1.669,0,0,1-1.712-.947c-1.627-2.579-3.3-5.131-4.961-7.686-.122-.173-.246-.341-.356-.509a.972.972,0,0,0-.134.037" transform="translate(69.847 3.038)" fill="#fff"/>
  <path id="Trazado_5302" data-name="Trazado 5302" d="M51.071,36.824v1.6c-.012.343.122.524.475.509a19.4,19.4,0,0,0,3.005-.1,2.007,2.007,0,0,0-.212-3.974c-.433-.037-.879-.017-1.3-.017-1.97,0-1.97,0-1.97,1.987m-2.262,2.9c0-2.029.027-4.045-.007-6.078-.007-.667.229-.872.867-.852,1.6.034,3.2.007,4.8.007a3.843,3.843,0,0,1,3.843,2.956,3.8,3.8,0,0,1-2.043,4.59c-.511.263-.307.516-.149.821.826,1.583,1.636,3.171,2.452,4.758.329.655.28.728-.463.745-1.748.041-1.748.041-2.552-1.583-.589-1.2-1.2-2.4-1.766-3.609a.956.956,0,0,0-.994-.653c-1.724.012-1.724-.007-1.724,1.768,0,1.137-.019,2.277,0,3.417,0,.485-.188.643-.648.67-1.615.068-1.615.085-1.615-1.52Z" transform="translate(35.526 3.052)" fill="#fff"/>
  <path id="Trazado_5303" data-name="Trazado 5303" d="M54.542,31.605c.5,0,1.008.027,1.5-.01a1.851,1.851,0,0,0,1.783-1.78,1.878,1.878,0,0,0-1.571-2.167,17.053,17.053,0,0,0-3.073-.129c-.343-.01-.485.163-.477.507v1.739c0,1.848,0,1.848,1.839,1.841m-3.994.816c0-2.016.027-4.033-.019-6.059-.015-.723.244-.923.911-.889a45.523,45.523,0,0,1,5.469.151A3.769,3.769,0,0,1,60.072,29a3.758,3.758,0,0,1-2.094,4.069c-.446.222-.436.4-.234.782.845,1.6,1.661,3.2,2.486,4.8.321.631.261.694-.436.714-1.826.041-1.826.041-2.65-1.624-.565-1.152-1.13-2.284-1.666-3.429a1,1,0,0,0-1.054-.684C52.7,33.641,52.7,33.627,52.7,35.4c0,1.084-.017,2.177,0,3.273.007.489-.134.709-.658.7-1.763-.029-1.481.136-1.5-1.449-.019-1.831,0-3.667,0-5.5" transform="translate(38.004 -7.465)" fill="#fff"/>
  <path id="Trazado_5304" data-name="Trazado 5304" d="M62.331,32.392V36.71c-.029.448.144.633.594.614.619-.027,1.235.019,1.843-.01a2.518,2.518,0,0,0,2.645-2.158,17.788,17.788,0,0,0,.017-5.474,2.42,2.42,0,0,0-2.133-2.05c-.706-.107-1.415-.078-2.116-.124-.648-.044-.879.149-.855.843.039,1.352,0,2.693,0,4.042m-2.267.037c0-2.029.029-4.042-.015-6.061-.024-.721.234-.94.908-.894a45.434,45.434,0,0,1,4.917.122,4.159,4.159,0,0,1,3.8,3.787,18.442,18.442,0,0,1-.058,6.3,4.26,4.26,0,0,1-4.337,3.672c-1.512.032-3.02-.017-4.525.017-.555.015-.752-.224-.687-.752V32.429Z" transform="translate(51.667 -7.463)" fill="#fff"/>
  <path id="Trazado_5305" data-name="Trazado 5305" d="M52.586,25.182c0-.658.012-1.317,0-1.953a6.327,6.327,0,0,0-.114-.757,2.58,2.58,0,0,0-5.138.153,24.033,24.033,0,0,0,0,5.209,2.6,2.6,0,0,0,5.131.19,16.077,16.077,0,0,0,.122-2.842m2.287.037c-.017.93-.017,1.851-.112,2.771a4.323,4.323,0,0,1-3.151,3.965,4.986,4.986,0,0,1-5.121-1.025,3.687,3.687,0,0,1-1.274-2.18A20.21,20.21,0,0,1,45.2,21.7c.426-2.292,2.6-3.7,5.194-3.555a4.647,4.647,0,0,1,4.361,4.15c.1.974.095,1.948.112,2.922" transform="translate(29.926 -17.981)" fill="#fff"/>
  <path id="Trazado_5306" data-name="Trazado 5306" d="M47.569,32.455A17.92,17.92,0,0,0,47.7,35.3a2.585,2.585,0,0,0,5.133-.209,23.22,23.22,0,0,0,0-5.2,2.593,2.593,0,0,0-5.133-.2,17.864,17.864,0,0,0-.134,2.771m-2.267.027c.039-1.008.007-1.98.112-2.956A4.718,4.718,0,0,1,50.6,25.449c2.978.278,4.466,2.085,4.544,5.136.039,1.442,0,2.874-.029,4.3a4.662,4.662,0,0,1-4.53,4.656,4.751,4.751,0,0,1-5.168-4.113,26.928,26.928,0,0,1-.119-2.947" transform="translate(30.504 -7.516)" fill="#fff"/>
  <path id="Trazado_5307" data-name="Trazado 5307" d="M75.173,39.786a20.479,20.479,0,0,0-.127-2.7,2.556,2.556,0,0,0-2.584-2.292,2.492,2.492,0,0,0-2.55,2.228A22.44,22.44,0,0,0,69.9,42.5a2.589,2.589,0,0,0,5.133-.007,17.445,17.445,0,0,0,.136-2.708m2.248.024a21.226,21.226,0,0,1-.11,2.92,4.581,4.581,0,0,1-3.913,4,4.914,4.914,0,0,1-4.758-1.654,4.973,4.973,0,0,1-1.054-3.025,23.846,23.846,0,0,1,.1-5.482,4.576,4.576,0,0,1,3.96-3.792,5.026,5.026,0,0,1,4.639,1.651,5.649,5.649,0,0,1,1.125,3.638c.037.58.007,1.157.007,1.739" transform="translate(62.331 2.964)" fill="#fff"/>
  <path id="Trazado_5308" data-name="Trazado 5308" d="M58.764,39.739c0-2.016.017-4.038,0-6.061-.012-.638.156-.906.838-.886,2.4.027,4.795.007,7.2.007.811.012.811.012.811,1.035,0,.974,0,1-.855,1-1.671,0-3.329.019-5-.01-.524-.007-.75.144-.721.711.029.791.029,1.578,0,2.369-.029.56.144.779.731.762,1.4-.034,2.781.01,4.179-.019.541,0,.767.2.714.731-.007.114,0,.236,0,.351-.007.913-.029.938-.921.938-1.305,0-2.6.027-3.9,0-.589-.01-.838.144-.8.787.041.808.024,1.624,0,2.44-.017.482.166.648.645.648,1.685-.019,3.368.01,5.063-.019.638-.017.959.18.867.865q-.007.208,0,.416c.093.667-.19.889-.855.869-2.367-.015-4.744-.015-7.116,0-.645.019-.891-.185-.874-.855.022-2.031,0-4.045,0-6.073" transform="translate(49.817 3.052)" fill="#fff"/>
  <path id="Trazado_5309" data-name="Trazado 5309" d="M62.03,25.146c0-2.068,0-4.137-.01-6.2-.01-.58.2-.765.75-.755,2.443.017,4.9.017,7.332,0,.56-.01.811.175.755.755,0,.158,0,.326,0,.48.078.66-.226.835-.84.826-1.644-.032-3.283.01-4.931-.027-.58,0-.84.141-.8.784.044.779.034,1.576,0,2.367-.017.5.158.694.677.684,1.391-.027,2.788.017,4.181-.017.56-.01.816.166.762.752a1.358,1.358,0,0,0,0,.421c.071.662-.195.906-.86.889-1.366-.046-2.749,0-4.113-.029-.468,0-.658.168-.648.648.029.85.029,1.719,0,2.581-.015.511.207.643.672.643,1.656-.019,3.329-.01,5,0,.855,0,.9.032.9.882,0,.192,0,.377,0,.563.029.468-.168.677-.633.677q-3.773-.015-7.547,0c-.507,0-.658-.229-.658-.718.015-2.072.01-4.135.01-6.2" transform="translate(54.498 -17.901)" fill="#fff"/>
  <path id="Trazado_5310" data-name="Trazado 5310" d="M83.52,36.278c-.626,1.822-1.191,3.48-1.773,5.129-.136.412.044.475.375.475.9-.01,1.778-.01,2.671,0,.409,0,.6-.1.433-.572-.558-1.6-1.1-3.227-1.707-5.031m4.586,10.391c-1.1,0-1.081-.007-1.471-1.076-.726-2.038-.144-1.649-2.335-1.685-.908-.017-1.819.017-2.735-.017a.776.776,0,0,0-.894.648c-.136.526-.37,1.054-.521,1.583a.7.7,0,0,1-.762.548c-2.289.019-1.817.027-1.225-1.639,1.361-3.843,2.781-7.668,4.123-11.516.28-.8.757-.684,1.322-.721a.907.907,0,0,1,1.054.721c1.415,3.972,2.857,7.936,4.284,11.9.46,1.259.465,1.252-.84,1.252" transform="translate(76.966 3.05)" fill="#fff"/>
  <path id="Trazado_5311" data-name="Trazado 5311" d="M49.169,36.293c-.636,1.814-1.2,3.465-1.783,5.121-.1.317-.044.475.319.475.935-.01,1.863-.01,2.8,0,.436,0,.5-.166.37-.563-.558-1.615-1.093-3.229-1.7-5.034m4.559,10.384c-1.086,0-1.069-.007-1.439-1.042-.748-2.106-.141-1.666-2.367-1.719-.921-.017-1.831.017-2.747-.017a.762.762,0,0,0-.874.658c-.132.516-.343,1.008-.487,1.524a.729.729,0,0,1-.8.6c-2.175.007-1.829.056-1.208-1.663,1.349-3.8,2.74-7.581,4.081-11.389a1.07,1.07,0,0,1,1.191-.84,1.112,1.112,0,0,1,1.261.833c1.388,3.93,2.82,7.851,4.23,11.772.48,1.288.48,1.288-.845,1.288" transform="translate(27.686 3.043)" fill="#fff"/>
  <path id="Trazado_5312" data-name="Trazado 5312" d="M92.948,29.032c-.633,1.858-1.222,3.533-1.795,5.219-.09.246-.044.409.258.409,1,0,2.007.01,3.007,0,.246,0,.38-.114.287-.392-.57-1.688-1.137-3.37-1.758-5.236m4.539,10.333c-1.089,0-1.089,0-1.447-1.091-.577-1.7-.577-1.7-2.335-1.7-.935,0-1.873.015-2.805-.012a.651.651,0,0,0-.74.553c-.153.511-.356,1-.5,1.517s-.4.8-.969.731a4.7,4.7,0,0,0-.962,0c-.511.037-.706-.107-.5-.677,1.539-4.23,3.078-8.438,4.581-12.675.244-.694.76-.507,1.242-.543.431-.017.774.037.959.55q2.25,6.316,4.547,12.614c.207.57.056.772-.516.731-.178-.017-.363,0-.548,0" transform="translate(90.557 -7.459)" fill="#fff"/>
  <path id="Trazado_5313" data-name="Trazado 5313" d="M77.154,29.3h-.175q-.84,2.447-1.692,4.887c-.127.331-.022.489.321.489.964,0,1.914-.01,2.866,0,.348,0,.458-.124.336-.465-.553-1.632-1.108-3.273-1.656-4.912m4.459,10.072c-1.1,0-1.1,0-1.459-1.091-.565-1.7-.565-1.7-2.311-1.7-.921,0-1.829.015-2.737-.012-.472-.017-.745.131-.852.6-.061.251-.158.487-.239.723-.519,1.561-.777,1.7-2.416,1.476-.463-.071-.365-.317-.268-.587.385-1.1.791-2.194,1.176-3.275,1.12-3.1,2.253-6.183,3.341-9.288.217-.64.587-.755,1.166-.755a1.041,1.041,0,0,1,1.191.762c1.466,4.147,2.966,8.282,4.469,12.422.209.567.058.762-.514.721-.178-.017-.363,0-.548,0" transform="translate(67.744 -7.463)" fill="#fff"/>
  <path id="Trazado_5314" data-name="Trazado 5314" d="M78.988,29.646v1.739c0,.338.127.514.48.514.935-.01,1.87.037,2.808-.024a2.146,2.146,0,0,0,.114-4.228,16.326,16.326,0,0,0-2.927-.122c-.365-.012-.475.19-.475.524v1.6M76.728,32.4c0-2.021.019-4.045-.012-6.061-.012-.677.229-.9.869-.862a44.9,44.9,0,0,1,5.4.139,4.225,4.225,0,0,1-.275,8.326,19.819,19.819,0,0,1-2.944.09c-.584-.01-.811.166-.784.789.034,1.281-.01,2.555,0,3.833.012.543-.178.738-.714.728-1.783-.037-1.532.166-1.542-1.554-.017-1.814,0-3.621,0-5.428" transform="translate(75.589 -7.468)" fill="#fff"/>
  <path id="Trazado_5315" data-name="Trazado 5315" d="M66.892,32.641a14.79,14.79,0,0,1,.163-3.37,4.717,4.717,0,0,1,5.265-3.818,4.585,4.585,0,0,1,4.281,3.6c.141.567,0,.777-.575.745a3.534,3.534,0,0,0-.621.01,1.031,1.031,0,0,1-1.235-.767,2.4,2.4,0,0,0-2.861-1.468,2.47,2.47,0,0,0-2.024,2.243,22.011,22.011,0,0,0,0,5.34,2.46,2.46,0,0,0,2.289,2.282,2.519,2.519,0,0,0,2.635-1.473c.129-.28.119-.718.5-.772a4.323,4.323,0,0,1,1.768.017c.326.088.18.419.124.665a4.691,4.691,0,0,1-5.477,3.607c-2.754-.436-4.064-2.1-4.232-5.2-.022-.606,0-1.21,0-1.644" transform="translate(61.451 -7.52)" fill="#fff"/>
  <path id="Trazado_5316" data-name="Trazado 5316" d="M53.7,39.546c.017-.726,0-1.646.1-2.576a4.575,4.575,0,0,1,3.911-4.159,4.7,4.7,0,0,1,5.669,3.5c.212.745.136.833-.648.84-.129.012-.273-.007-.409.012a1.1,1.1,0,0,1-1.337-.828,2.552,2.552,0,0,0-4.885.733,20.969,20.969,0,0,0,.012,5.482,2.432,2.432,0,0,0,2.077,2.182,2.607,2.607,0,0,0,2.839-1.481c.146-.3.1-.767.533-.826a4.719,4.719,0,0,1,1.695.019c.351.078.224.4.166.638a4.524,4.524,0,0,1-3.8,3.641,4.86,4.86,0,0,1-5.075-1.982,5.865,5.865,0,0,1-.838-3.185c-.032-.6-.012-1.21-.012-2.009" transform="translate(42.545 2.963)" fill="#fff"/>
  <path id="Trazado_5317" data-name="Trazado 5317" d="M57.577,25.139c0-2.063.017-4.13,0-6.193-.01-.58.19-.772.748-.755,1.673.044,1.51-.209,1.51,1.517.007,3.117.017,6.217-.01,9.337,0,.7.195.928.9.908,1.568-.041,3.144.007,4.724-.024.64-.01.945.2.852.877a3.491,3.491,0,0,0,0,.553c.044.509-.173.7-.67.7-2.447,0-4.89-.007-7.328.01-.592,0-.723-.258-.723-.8.017-2.046,0-4.089,0-6.134" transform="translate(48.114 -17.902)" fill="#fff"/>
  <path id="Trazado_5318" data-name="Trazado 5318" d="M63.447,39.7c0-2.029.017-4.042-.007-6.061-.012-.633.195-.862.823-.843,1.627.054,1.427-.166,1.432,1.466.012,3.1,0,6.217,0,9.332,0,.938,0,.938.952.938,1.561,0,3.112.019,4.668-.01.592,0,.852.144.85.818-.039,1.334,0,1.334-1.3,1.334-2.184,0-4.388-.017-6.575.01-.621.007-.86-.212-.847-.85.024-2.048.007-4.081.007-6.134" transform="translate(56.534 3.052)" fill="#fff"/>
  <path id="Trazado_5319" data-name="Trazado 5319" d="M55.61,32.352c0-2,.017-4-.01-5.991,0-.65.18-.906.855-.9,1.408.029,1.408,0,1.408,1.422,0,3.21.017,6.414-.012,9.614,0,.623.17.852.816.835,1.6-.046,3.195.017,4.8-.029.714-.024.959.239.86.921a2.135,2.135,0,0,0,0,.353c.083.606-.183.808-.784.8q-3.587-.04-7.191,0c-.553,0-.75-.18-.75-.762.027-2.087.01-4.176.01-6.263" transform="translate(45.284 -7.464)" fill="#fff"/>
  <path id="Trazado_5320" data-name="Trazado 5320" d="M92.6,32.419V26.429c0-.928.024-.957.9-.957,1.529,0,1.349-.095,1.349,1.4.01,3.2.022,6.4-.015,9.6,0,.684.214.869.865.852,1.619-.044,3.241.01,4.856-.027.555-.01.757.173.752.755-.012,1.305.017,1.305-1.225,1.305H93.575c-.972,0-.972-.01-.972-1.023Z" transform="translate(98.391 -7.454)" fill="#fff"/>
  <path id="Trazado_5321" data-name="Trazado 5321" d="M89.278,33.405c0,1.714-.02,3.436,0,5.155.012.58-.134.833-.755.816-1.627-.044-1.4.129-1.4-1.42-.015-3.2-.015-6.414.007-9.607,0-.638-.149-.9-.8-.843-.75.051-1.512-.007-2.257.01-.463.019-.648-.132-.665-.633-.027-1.4-.054-1.4,1.349-1.4,2.45,0,4.887.019,7.33-.017.684-.01.989.192.884.9a1.319,1.319,0,0,0,0,.353c.075.587-.141.845-.762.806-.706-.044-1.42.032-2.121-.019-.684-.063-.84.222-.826.874.037,1.673.01,3.344.01,5.024" transform="translate(85.193 -7.463)" fill="#fff"/>
  <path id="Trazado_5322" data-name="Trazado 5322" d="M57.541,25.131c0,2.016-.017,4.035.007,6.052.01.66-.175.908-.85.9-1.41-.017-1.41.012-1.41-1.42,0-3.848.007-7.71-.015-11.56,0-.7.192-.94.9-.906,1.529.054,1.359-.158,1.369,1.369v5.569" transform="translate(44.816 -17.903)" fill="#fff"/>
  <path id="Trazado_5323" data-name="Trazado 5323" d="M81.62,32.41c0-2.014.017-4.035-.01-6.049-.015-.643.141-.916.826-.9,1.551.051,1.432-.151,1.432,1.471V38.349c0,1.008,0,1.02-.967,1.02-1.437-.012-1.281.114-1.281-1.317-.01-1.88,0-3.755,0-5.642" transform="translate(82.613 -7.463)" fill="#fff"/>
  <path id="Trazado_5324" data-name="Trazado 5324" d="M100.275,31.516c-.658,1.113-.835,1.128-1.583.2,0,.377.007.675,0,.964-.01.239-.114.395-.368.4s-.377-.139-.377-.385c-.01-.833-.01-1.666,0-2.494,0-.173.049-.329.251-.368s.424-.032.541.188c.183.324.351.648.519.972.144.282.273.275.426.007.153-.287.3-.57.446-.847a.535.535,0,0,1,.626-.319c.312.056.278.319.278.536.01.738.01,1.485,0,2.218,0,.248-.034.472-.353.492-.356.017-.4-.229-.4-.509V31.516" transform="translate(106.051 -1.207)" fill="#fff"/>
  <path id="Trazado_5325" data-name="Trazado 5325" d="M98,29.824c.278,0,.548-.007.823,0,.168.007.319.056.341.265s-.076.358-.295.358c-.472.01-.494.307-.489.667,0,.511,0,1.018,0,1.527,0,.265-.11.455-.407.438-.278-.012-.338-.2-.338-.429-.007-.511-.017-1.018-.007-1.529,0-.351-.01-.665-.477-.675-.224,0-.331-.119-.309-.358.027-.209.178-.258.348-.265.27-.007.543,0,.816,0" transform="translate(104.457 -1.21)" fill="#fff"/>
</svg>
